<svg width="200" height="200" viewBox="0 0 200 200" xmlns="http://www.w3.org/2000/svg">
  <!-- Голова собаки -->
  <circle cx="100" cy="80" r="50" fill="#74b9ff" stroke="#0984e3" stroke-width="3"/>
  
  <!-- Уши (стоячие) -->
  <ellipse cx="75" cy="50" rx="15" ry="25" fill="#74b9ff" stroke="#0984e3" stroke-width="2"/>
  <ellipse cx="125" cy="50" rx="15" ry="25" fill="#74b9ff" stroke="#0984e3" stroke-width="2"/>
  
  <!-- Внутренние уши -->
  <ellipse cx="75" cy="50" rx="8" ry="18" fill="#a8e6ff"/>
  <ellipse cx="125" cy="50" rx="8" ry="18" fill="#a8e6ff"/>
  
  <!-- Глаза (большие и выразительные) -->
  <circle cx="85" cy="70" r="10" fill="#2d3436"/>
  <circle cx="115" cy="70" r="10" fill="#2d3436"/>
  <circle cx="87" cy="68" r="4" fill="#ffffff"/>
  <circle cx="117" cy="68" r="4" fill="#ffffff"/>
  
  <!-- Нос -->
  <ellipse cx="100" cy="85" rx="6" ry="5" fill="#2d3436"/>
  
  <!-- Рот (широкая улыбка) -->
  <path d="M 85 95 Q 100 105 115 95" stroke="#2d3436" stroke-width="3" fill="none"/>
  
  <!-- Зубы -->
  <rect x="95" y="90" width="3" height="8" fill="#ffffff"/>
  <rect x="102" y="90" width="3" height="8" fill="#ffffff"/>
  
  <!-- Тело -->
  <ellipse cx="100" cy="150" rx="60" ry="45" fill="#74b9ff" stroke="#0984e3" stroke-width="3"/>
  
  <!-- Лапы -->
  <ellipse cx="65" cy="185" rx="18" ry="25" fill="#74b9ff" stroke="#0984e3" stroke-width="2"/>
  <ellipse cx="135" cy="185" rx="18" ry="25" fill="#74b9ff" stroke="#0984e3" stroke-width="2"/>
  
  <!-- Хвост (закрученный) -->
  <path d="M 160 150 Q 180 130 170 100 Q 160 70 140 80 Q 120 90 130 110 Q 140 130 160 150" stroke="#74b9ff" stroke-width="10" fill="none" stroke-linecap="round"/>
  
  <!-- Пятна на теле -->
  <circle cx="80" cy="130" r="8" fill="#0984e3"/>
  <circle cx="120" cy="140" r="6" fill="#0984e3"/>
  <circle cx="90" cy="160" r="5" fill="#0984e3"/>
  
  <!-- Забавные брови -->
  <path d="M 75 55 Q 85 45 95 55" stroke="#2d3436" stroke-width="4" fill="none"/>
  <path d="M 105 55 Q 115 45 125 55" stroke="#2d3436" stroke-width="4" fill="none"/>
  
  <!-- Звездочки вокруг -->
  <path d="M 30 40 L 35 50 L 45 50 L 37 57 L 40 67 L 30 62 L 20 67 L 23 57 L 15 50 L 25 50 Z" fill="#f1c40f"/>
  <path d="M 170 30 L 175 40 L 185 40 L 177 47 L 180 57 L 170 52 L 160 57 L 163 47 L 155 40 L 165 40 Z" fill="#f1c40f"/>
</svg>
